<svg id="Layer_1" data-name="Layer 1" xmlns="http://www.w3.org/2000/svg" viewBox="0 0 800 800"><defs><style>.cls-1{isolation:isolate;}.cls-2{fill:#222;}.cls-3{fill:#f2f2f2;}</style></defs><g class="cls-1"><g class="cls-1"><g class="cls-1"><path class="cls-2" d="M347,576l-56.86-30.93c31.79,17.29,69.5,24.59,110,18.9,113.68-16,206-128.4,206.25-251.12,0-2.8-.05-5.58-.14-8.34l56.86,30.93c.09,2.76.15,5.54.14,8.34C663,466.5,570.63,578.92,457,594.9c-40.47,5.69-78.18-1.61-110-18.9"/></g></g><g class="cls-1"><g class="cls-1"><path class="cls-2" d="M150.09,604.6,93.23,573.67C42,545.8,12.41,517.17,9.15,514L66,544.94c3.26,3.16,32.86,31.79,84.08,59.66"/></g></g><path class="cls-3" d="M720.15,378.5V401H742.6V391q-6.84-6.09-14.68-12.45Z"/><path class="cls-3" d="M670.26,339.4v11.66h19.48Q680.44,345.15,670.26,339.4Z"/><path class="cls-3" d="M720.15,372.38V376h4.65Q722.52,374.2,720.15,372.38Z"/><path class="cls-3" d="M695.21,376h22.45v-5.54c-7-5.28-14.46-10.6-22.45-15.86Z"/><path class="cls-3" d="M649.23,425.9h18.54V403.45H655.83Q653,414.85,649.23,425.9Z"/><path class="cls-3" d="M663.2,343.78c0,2.43-.06,4.86-.13,7.28h4.7V338q-2.34-1.29-4.71-2.57C663.15,338.2,663.21,341,663.2,343.78Z"/><path class="cls-3" d="M661,376h6.75V353.56H663Q662.5,364.87,661,376Z"/><path class="cls-3" d="M656.44,401h11.33V378.5h-7.09Q659.06,389.86,656.44,401Z"/><polygon class="cls-3" points="720.15 438.37 720.15 450.85 742.6 450.85 742.6 438.37 742.6 428.4 720.15 428.4 720.15 438.37"/><polygon class="cls-3" points="695.21 438.37 695.21 450.85 717.66 450.85 717.66 438.37 717.66 428.4 695.21 428.4 695.21 438.37"/><polygon class="cls-3" points="745.1 438.37 745.1 450.85 767.55 450.85 767.55 438.37 767.55 428.4 745.1 428.4 745.1 438.37"/><path class="cls-3" d="M770,417.85v8h7.19Q774,422.18,770,417.85Z"/><path class="cls-3" d="M756,403.45H745.1V425.9h22.45V415.17C764.1,411.5,760.26,407.57,756,403.45Z"/><path class="cls-3" d="M745.1,393.19V401h8.36C750.81,398.43,748,395.83,745.1,393.19Z"/><rect class="cls-3" x="670.26" y="353.56" width="22.45" height="22.45"/><rect class="cls-3" x="670.26" y="378.5" width="22.45" height="22.45"/><rect class="cls-3" x="670.26" y="403.45" width="22.45" height="22.45"/><rect class="cls-3" x="720.15" y="403.45" width="22.45" height="22.45"/><path class="cls-3" d="M645.32,436.56v14.29h22.45V428.4H648.36Q646.91,432.51,645.32,436.56Z"/><rect class="cls-3" x="695.21" y="378.5" width="22.45" height="22.45"/><polygon class="cls-3" points="670.26 438.37 670.26 450.85 692.71 450.85 692.71 438.37 692.71 428.4 670.26 428.4 670.26 438.37"/><rect class="cls-3" x="695.21" y="403.45" width="22.45" height="22.45"/><path class="cls-3" d="M617.88,500.74V488.85q-4.08,6.07-8.46,11.89Z"/><path class="cls-3" d="M605.4,505.91q-4.81,6.07-10,11.86v7.91h22.45V503.23H607.49C606.8,504.13,606.11,505,605.4,505.91Z"/><path class="cls-3" d="M642.82,450.85v-8.12c-1.15,2.73-2.35,5.43-3.59,8.12Z"/><path class="cls-3" d="M626.14,475.79h16.68V453.34h-4.74Q632.64,464.88,626.14,475.79Z"/><path class="cls-3" d="M620.37,485.08v15.66h22.45V478.29H624.65Q622.57,481.73,620.37,485.08Z"/><rect class="cls-3" x="620.37" y="528.18" width="22.45" height="22.45"/><rect class="cls-3" x="645.32" y="478.29" width="22.45" height="22.45"/><rect class="cls-3" x="620.37" y="503.23" width="22.45" height="22.45"/><rect class="cls-3" x="645.32" y="503.23" width="22.45" height="22.45"/><rect class="cls-3" x="645.32" y="528.18" width="22.45" height="22.45"/><path class="cls-3" d="M720.15,500.74h16q3.35-3.11,6.5-6.1V478.29H720.15Z"/><path class="cls-3" d="M745.1,475.79h16.54q3.12-3.21,5.91-6.18V453.34H745.1Z"/><path class="cls-3" d="M745.1,492.26c5.11-4.91,9.82-9.59,14.11-14H745.1Z"/><rect class="cls-3" x="670.26" y="503.23" width="22.45" height="22.45"/><rect class="cls-3" x="695.21" y="478.29" width="22.45" height="22.45"/><rect class="cls-3" x="695.21" y="453.34" width="22.45" height="22.45"/><rect class="cls-3" x="720.15" y="453.34" width="22.45" height="22.45"/><path class="cls-3" d="M720.15,515c4.63-4,9-8,13.24-11.8H720.15Z"/><rect class="cls-3" x="645.32" y="453.34" width="22.45" height="22.45"/><rect class="cls-3" x="670.26" y="453.34" width="22.45" height="22.45"/><rect class="cls-3" x="670.26" y="478.29" width="22.45" height="22.45"/><path class="cls-3" d="M620.37,575.57h18.44c1.35-.84,2.68-1.69,4-2.54V553.12H620.37Z"/><path class="cls-3" d="M787.39,438.37c-1.9-2.5-4.58-5.88-8-10H770v22.45h14.37c3.52-4.13,5.69-6.83,6.44-7.78C790.53,442.62,789.38,441,787.39,438.37Z"/><path class="cls-3" d="M770,466.94c4.92-5.28,9-9.88,12.23-13.6H770Z"/><path class="cls-3" d="M695.21,525.68h12.38q5.19-4.29,10.07-8.49v-14H695.21Z"/><path class="cls-3" d="M670.26,550.63h5.26q8.91-6.51,17.19-13v-9.46H670.26Z"/><path class="cls-3" d="M695.21,535.68c3.19-2.51,6.3-5,9.35-7.5h-9.35Z"/><path class="cls-3" d="M670.26,554.43l1.82-1.31h-1.82Z"/><path class="cls-3" d="M620.37,586.75q7.36-4.29,14.45-8.68H620.37Z"/><path class="cls-3" d="M645.32,571.42q11.64-7.54,22.45-15.21v-3.09H645.32Z"/><path class="cls-3" d="M470.7,600.52h22.45V586.39a208.85,208.85,0,0,1-22.45,6.07Z"/><path class="cls-3" d="M420.81,596.56v4h22.45v-4.2A185.37,185.37,0,0,1,420.81,596.56Z"/><path class="cls-3" d="M445.75,596.14v4.38H468.2V593c-3.72.74-7.47,1.39-11.25,1.92S449.46,595.84,445.75,596.14Z"/><path class="cls-3" d="M395.86,600.52h22.45v-4.11a179.31,179.31,0,0,1-22.45-2.87Z"/><path class="cls-3" d="M495.64,585.53v15h22.45V578.07h-3.73Q505.18,582.24,495.64,585.53Z"/><path class="cls-3" d="M370.92,600.52h22.45V593a170.86,170.86,0,0,1-22.45-6.33Z"/><path class="cls-3" d="M570.48,542.16v8.47h22.45V528.18h-7.35Q578.29,535.48,570.48,542.16Z"/><polygon class="cls-3" points="595.43 553.12 595.43 575.57 605.4 575.57 617.88 575.57 617.88 553.12 605.4 553.12 595.43 553.12"/><path class="cls-3" d="M520.59,575.57H543V562.5a233.79,233.79,0,0,1-22.45,12.63Z"/><polygon class="cls-3" points="595.43 528.18 595.43 550.63 605.4 550.63 617.88 550.63 617.88 528.18 605.4 528.18 595.43 528.18"/><path class="cls-3" d="M545.53,560.9v14.67H568V553.12h-11.3Q551.21,557.17,545.53,560.9Z"/><path class="cls-3" d="M568,550.63v-6.35q-3.93,3.27-8,6.35Z"/><path class="cls-3" d="M592.93,525.68V520.5c-1.61,1.75-3.23,3.48-4.88,5.18Z"/><rect class="cls-3" x="370.92" y="603.01" width="22.45" height="22.45"/><path class="cls-3" d="M520.59,632.77q6.76-2.32,13.38-4.81H520.59Z"/><path class="cls-3" d="M520.59,625.47h19.9l2.55-1V603H520.59Z"/><path class="cls-3" d="M495.64,640.66q11.42-3.28,22.45-7V628H495.64Z"/><path class="cls-3" d="M570.48,612.72Q580.71,608,590.54,603H570.48Z"/><path class="cls-3" d="M545.53,623.47q11.46-4.61,22.46-9.6V603H545.53Z"/><path class="cls-3" d="M420.81,656.08q3.65-.45,7.32-1,7.14-1,14.18-2.21h-21.5Z"/><path class="cls-3" d="M395.86,658.51q11.08-.76,22.45-2.12v-3.48H395.86Z"/><path class="cls-3" d="M370.92,659.57c7.37-.11,14.85-.39,22.45-.88v-5.78H370.92Z"/><path class="cls-3" d="M470.7,647.17q11.39-2.67,22.45-5.79V628H470.7Z"/><rect class="cls-3" x="370.92" y="627.96" width="22.45" height="22.45"/><path class="cls-3" d="M445.75,650.41h10c4.19-.84,8.36-1.73,12.48-2.66V628H445.75Z"/><rect class="cls-3" x="395.86" y="627.96" width="22.45" height="22.45"/><rect class="cls-3" x="545.53" y="578.07" width="22.45" height="22.45"/><rect class="cls-3" x="570.48" y="578.07" width="22.45" height="22.45"/><rect class="cls-3" x="570.48" y="553.12" width="22.45" height="22.45"/><path class="cls-3" d="M595.43,578.07V600.5q5-2.62,10-5.31,6.33-3.45,12.48-7V578.07H595.43Z"/><rect class="cls-3" x="520.59" y="578.07" width="22.45" height="22.45"/><rect class="cls-3" x="395.86" y="603.01" width="22.45" height="22.45"/><rect class="cls-3" x="420.81" y="603.01" width="22.45" height="22.45"/><rect class="cls-3" x="495.64" y="603.01" width="22.45" height="22.45"/><rect class="cls-3" x="470.7" y="603.01" width="22.45" height="22.45"/><rect class="cls-3" x="445.75" y="603.01" width="22.45" height="22.45"/><rect class="cls-3" x="420.81" y="627.96" width="22.45" height="22.45"/><path class="cls-3" d="M155.59,438.37q-4.71,4.53-9.18,9v3.49h22.45V428.4h-2.65Q160.77,433.41,155.59,438.37Z"/><path class="cls-3" d="M218.75,401V385q-10.69,7.88-20.67,15.93Z"/><path class="cls-3" d="M221.24,383.2V401h22.45V378.5H227.76C225.56,380.06,223.4,381.63,221.24,383.2Z"/><rect class="cls-3" x="196.3" y="403.45" width="22.45" height="22.45"/><path class="cls-3" d="M255.08,360.26c-3,1.88-6,3.79-8.89,5.7V376h6.71Q253.74,368.09,255.08,360.26Z"/><rect class="cls-3" x="221.24" y="403.45" width="22.45" height="22.45"/><path class="cls-3" d="M171.35,425.9H193.8V404.44c-7.83,6.41-15.31,12.86-22.45,19.28Z"/><path class="cls-3" d="M252.65,378.5h-6.46V401h5.32Q251.57,389.65,252.65,378.5Z"/><polygon class="cls-3" points="196.3 438.37 196.3 450.85 218.75 450.85 218.75 438.37 218.75 428.4 196.3 428.4 196.3 438.37"/><polygon class="cls-3" points="171.35 438.37 171.35 450.85 193.8 450.85 193.8 438.37 193.8 428.4 171.35 428.4 171.35 438.37"/><polygon class="cls-3" points="221.24 438.37 221.24 450.85 243.69 450.85 243.69 438.37 243.69 428.4 221.24 428.4 221.24 438.37"/><path class="cls-3" d="M251.52,403.45h-5.33V425.9h6.51Q251.59,414.91,251.52,403.45Z"/><path class="cls-3" d="M243.69,376v-8.42q-6.3,4.17-12.37,8.42Z"/><rect class="cls-3" x="271.13" y="553.12" width="22.45" height="22.45"/><rect class="cls-3" x="296.08" y="578.07" width="22.45" height="22.45"/><rect class="cls-3" x="296.08" y="627.96" width="22.45" height="22.45"/><rect class="cls-3" x="296.08" y="603.01" width="22.45" height="22.45"/><rect class="cls-3" x="321.03" y="603.01" width="22.45" height="22.45"/><rect class="cls-3" x="321.03" y="627.96" width="22.45" height="22.45"/><rect class="cls-3" x="321.03" y="578.07" width="22.45" height="22.45"/><path class="cls-3" d="M218.75,635v-7H199.88Q209,631.61,218.75,635Z"/><path class="cls-3" d="M171.35,615.46q10.71,5.13,22.4,10h.05V603H171.35Z"/><path class="cls-3" d="M221.24,635.85q10.89,3.71,22.45,7V628H221.24Z"/><path class="cls-3" d="M168.86,614.26V603H147.21C154,606.79,161.25,610.56,168.86,614.26Z"/><path class="cls-3" d="M346,652.91v6.34c3.3.14,6.63.23,10,.3q6.18.11,12.47.06v-6.7H346Z"/><rect class="cls-3" x="221.24" y="528.18" width="22.45" height="22.45"/><rect class="cls-3" x="246.19" y="578.07" width="22.45" height="22.45"/><rect class="cls-3" x="246.19" y="603.01" width="22.45" height="22.45"/><rect class="cls-3" x="221.24" y="503.23" width="22.45" height="22.45"/><rect class="cls-3" x="221.24" y="478.29" width="22.45" height="22.45"/><rect class="cls-3" x="271.13" y="578.07" width="22.45" height="22.45"/><rect class="cls-3" x="246.19" y="553.12" width="22.45" height="22.45"/><rect class="cls-3" x="246.19" y="503.23" width="22.45" height="22.45"/><rect class="cls-3" x="271.13" y="603.01" width="22.45" height="22.45"/><rect class="cls-3" x="246.19" y="528.18" width="22.45" height="22.45"/><rect class="cls-3" x="221.24" y="453.34" width="22.45" height="22.45"/><path class="cls-3" d="M121.46,473.61v2.18h22.45V453.34h-3.42C133.69,460.29,127.35,467.08,121.46,473.61Z"/><rect class="cls-3" x="146.41" y="453.34" width="22.45" height="22.45"/><rect class="cls-3" x="146.41" y="553.12" width="22.45" height="22.45"/><rect class="cls-3" x="146.41" y="528.18" width="22.45" height="22.45"/><rect class="cls-3" x="146.41" y="503.23" width="22.45" height="22.45"/><rect class="cls-3" x="146.41" y="478.29" width="22.45" height="22.45"/><rect class="cls-3" x="171.35" y="553.12" width="22.45" height="22.45"/><rect class="cls-3" x="171.35" y="503.23" width="22.45" height="22.45"/><path class="cls-3" d="M246.19,643.56q10.94,3,22.45,5.6V628H246.19Z"/><rect class="cls-3" x="171.35" y="528.18" width="22.45" height="22.45"/><path class="cls-3" d="M119,586v-8H107.14Q112.7,582,119,586Z"/><rect class="cls-3" x="121.46" y="553.12" width="22.45" height="22.45"/><path class="cls-3" d="M321,657.51q11,1.08,22.45,1.63v-6.23H321Z"/><path class="cls-3" d="M296.08,654.34q11,1.73,22.45,2.92v-4.35H296.08Z"/><path class="cls-3" d="M293.58,654v-1h-6.12C289.49,653.26,291.53,653.62,293.58,654Z"/><path class="cls-3" d="M271.13,649.7l3.35.71h19.1V628H271.13Z"/><rect class="cls-3" x="121.46" y="503.23" width="22.45" height="22.45"/><rect class="cls-3" x="121.46" y="528.18" width="22.45" height="22.45"/><rect class="cls-3" x="146.41" y="578.07" width="22.45" height="22.45"/><rect class="cls-3" x="121.46" y="478.29" width="22.45" height="22.45"/><rect class="cls-3" x="171.35" y="478.29" width="22.45" height="22.45"/><rect class="cls-3" x="171.35" y="578.07" width="22.45" height="22.45"/><path class="cls-3" d="M254.31,438.37q-.78-4.94-1.34-10h-6.78v22.45h10.44C255.74,446.75,255,442.59,254.31,438.37Z"/><path class="cls-3" d="M296.08,533.77v16.86h15.8A177.85,177.85,0,0,1,296.08,533.77Z"/><path class="cls-3" d="M246.19,478.29v22.45h22.45V488.48c-1.43-3.34-2.79-6.74-4.05-10.19Z"/><path class="cls-3" d="M257.2,453.34h-11v22.45h17.49A211.64,211.64,0,0,1,257.2,453.34Z"/><path class="cls-3" d="M271.13,528.18v22.45h22.45v-20c-.64-.82-1.29-1.65-1.92-2.48Z"/><path class="cls-3" d="M275.72,503.23h-4.59v22.45H289.8A186.54,186.54,0,0,1,275.72,503.23Z"/><path class="cls-3" d="M271.13,494.06v6.68h3.28Q272.71,497.44,271.13,494.06Z"/><rect class="cls-3" x="221.24" y="553.12" width="22.45" height="22.45"/><path class="cls-3" d="M121.46,587.66c6.56,4.21,13.67,8.53,21.3,12.86h1.15V578.07H121.46Z"/><path class="cls-3" d="M106.49,490.8q-4.32,5.15-8.19,9.94H119V478.29h-1.68Q111.58,484.74,106.49,490.8Z"/><path class="cls-3" d="M143.91,450.85v-1l-1,1Z"/><rect class="cls-3" x="221.24" y="603.01" width="22.45" height="22.45"/><rect class="cls-3" x="196.3" y="528.18" width="22.45" height="22.45"/><rect class="cls-3" x="196.3" y="478.29" width="22.45" height="22.45"/><rect class="cls-3" x="196.3" y="503.23" width="22.45" height="22.45"/><rect class="cls-3" x="196.3" y="553.12" width="22.45" height="22.45"/><rect class="cls-3" x="196.3" y="578.07" width="22.45" height="22.45"/><rect class="cls-3" x="196.3" y="453.34" width="22.45" height="22.45"/><rect class="cls-3" x="221.24" y="578.07" width="22.45" height="22.45"/><rect class="cls-3" x="171.35" y="453.34" width="22.45" height="22.45"/><path class="cls-3" d="M350.93,578.07h-5v22.45h22.45V585.78q-6.36-2.38-12.47-5.26C354.26,579.73,352.58,578.92,350.93,578.07Z"/><rect class="cls-3" x="196.3" y="603.01" width="22.45" height="22.45"/><path class="cls-3" d="M346,575.44v.13h.24Z"/><path class="cls-3" d="M296.08,553.12v22.45h22.45v-19q-2-1.68-3.92-3.42Z"/><path class="cls-3" d="M321,575.57h22.45V574A168.86,168.86,0,0,1,321,558.59Z"/><polygon class="cls-3" points="345.97 603.01 345.97 625.47 355.95 625.47 368.42 625.47 368.42 603.01 355.95 603.01 345.97 603.01"/><polygon class="cls-3" points="345.97 627.96 345.97 650.41 355.95 650.41 368.42 650.41 368.42 627.96 355.95 627.96 345.97 627.96"/><path class="cls-3" d="M69.08,547.84v-7.62c-1.68,2.53-2.71,4.16-3.07,4.72C66.48,545.4,67.51,546.4,69.08,547.84Z"/><path class="cls-3" d="M71.57,536.51v13.61l.57.51H94V528.18H77.39C75.11,531.36,73.17,534.15,71.57,536.51Z"/><path class="cls-3" d="M94,568.54V553.12H75C79.63,557.18,86,562.47,94,568.54Z"/><polygon class="cls-3" points="96.52 528.18 96.52 550.63 106.49 550.63 118.97 550.63 118.97 528.18 106.49 528.18 96.52 528.18"/><path class="cls-3" d="M96.52,553.12v17.29c2.24,1.67,4.6,3.4,7.08,5.16H119V553.12H96.52Z"/><path class="cls-3" d="M94,525.68V506.09c-5.85,7.4-10.8,14-14.84,19.59Z"/><polygon class="cls-3" points="96.52 503.23 96.52 525.68 106.49 525.68 118.97 525.68 118.97 503.23 106.49 503.23 96.52 503.23"/><path class="cls-2" d="M770,450.85V428.4h9.32c-.68-.81-1.39-1.64-2.13-2.5H770v-8c-.8-.88-1.64-1.77-2.49-2.68V425.9H745.1V403.45H756L753.46,401H745.1v-7.77c-.82-.75-1.65-1.49-2.5-2.24v10H720.15V378.5h7.77L724.8,376h-4.65v-3.63l-2.49-1.91V376H695.21v-21.4q-2.7-1.78-5.47-3.55H670.26V339.4c-.82-.47-1.66-.93-2.49-1.39v13.05h-4.7c0,.84-.06,1.67-.1,2.5h4.8V376H661c-.11.83-.22,1.66-.34,2.49h7.09V401H656.44c-.2.83-.41,1.66-.61,2.49h11.94V425.9H649.23c-.28.83-.57,1.67-.87,2.5h19.41v22.45H645.32V436.56c-.24.61-.47,1.21-.72,1.81q-.87,2.19-1.78,4.36v8.12h-3.59c-.38.83-.75,1.66-1.15,2.49h4.74v22.45H626.14l-1.49,2.5h18.17v22.45H620.37V485.08c-.82,1.27-1.65,2.52-2.49,3.77v11.89h-8.46c-.64.84-1.28,1.66-1.93,2.49h10.39v22.45H595.43v-7.91c-.83.92-1.66,1.82-2.5,2.73v5.18h-4.88c-.81.84-1.64,1.67-2.47,2.5h7.35v22.45H570.48v-8.47c-.83.71-1.66,1.43-2.49,2.12v6.35h-8q-1.65,1.26-3.33,2.49H568v22.45H545.53V560.9c-.82.54-1.66,1.07-2.49,1.6v13.07H520.59v-.44q-3.09,1.51-6.23,2.94h3.73v22.45H495.64v-15l-2.49.86v14.13H470.7v-8.06c-.83.18-1.66.36-2.5.52v7.54H445.75v-4.38l-2.49.18v4.2H420.81v-4c-.84,0-1.67-.1-2.5-.15v4.11H395.86v-7l-2.49-.52v7.5H370.92V586.69l-2.5-.91v14.74H346V578.07h5q-2.39-1.22-4.72-2.5H346v-.13c-.84-.46-1.66-.94-2.49-1.42v1.55H321v-17c-.84-.68-1.68-1.35-2.5-2.05v19H296.08V553.12h18.53q-1.38-1.23-2.73-2.49h-15.8V533.77c-.84-1-1.67-2.06-2.5-3.11v20H271.13V528.18h20.53c-.63-.83-1.24-1.66-1.86-2.5H271.13V503.23h4.59c-.44-.82-.88-1.66-1.31-2.49h-3.28v-6.68q-1.28-2.76-2.49-5.58v12.26H246.19V478.29h18.4c-.3-.83-.61-1.66-.91-2.5H246.19V453.34h11c-.19-.83-.39-1.66-.57-2.49H246.19V428.4H253c-.1-.83-.18-1.67-.27-2.5h-6.51V403.45h5.33c0-.6,0-1.2,0-1.81,0-.23,0-.46,0-.68h-5.32V378.5h6.46c.08-.83.16-1.66.25-2.49h-6.71V366l-2.5,1.63V376H231.32l-3.56,2.49h15.93V401H221.24V383.2L218.75,385V401H198.08c-1.44,1.15-2.86,2.31-4.28,3.48V425.9H171.35v-2.18q-2.59,2.34-5.14,4.68h2.65v22.45H146.41v-3.49l-2.5,2.5v1h-1c-.83.83-1.64,1.66-2.45,2.49h3.42v22.45H121.46v-2.18c-1.42,1.57-2.81,3.14-4.17,4.68H119v22.45H98.3c-1.48,1.83-2.9,3.61-4.28,5.35v19.59H79.18c-.62.86-1.22,1.69-1.79,2.5H94v22.45H72.14c.86.77,1.8,1.6,2.83,2.49H94v15.42l2.5,1.87V553.12H119v22.45H103.6l2.89,2,.65.45H119v8l2.49,1.62v-9.59h22.45v22.45h-1.15c1.46.83,3,1.66,4.45,2.49h21.65v11.25l2.49,1.2V603H193.8v22.46h-.05c2,.84,4.07,1.67,6.13,2.49h18.87v7l2.49.86V628h22.45v14.9l2.5.7V628h22.45v21.2l2.49.54V628h22.45v22.45h-19.1q6.4,1.33,13,2.5h6.12v1l2.5.39v-1.43h22.45v4.35l2.5.25v-4.6h22.45v6.23l2.49.11v-6.34h22.45v6.7l2.5,0v-6.66h22.45v5.78l2.49-.18v-5.6h22.45v3.48l2.5-.31v-3.17h21.5q6.76-1.17,13.41-2.5h-10V628H468.2v19.79l2.5-.58V628h22.45v13.42l2.49-.72V628h22.45v5.66l2.5-.85V628H534q3.28-1.23,6.52-2.49h-19.9V603H543v21.45l2.49-1V603H568v10.86l2.49-1.15V603h20.06c1.63-.83,3.27-1.66,4.89-2.51V578.07h22.45V588.2l2.49-1.45v-8.68h14.45q2-1.25,4-2.5H620.37V553.12h22.45V573l2.5-1.61v-18.3h22.45v3.09c.83-.59,1.67-1.18,2.49-1.78v-1.31h1.82l3.44-2.49h-5.26V528.18h22.45v9.46l2.5-2v-7.5h9.35l3-2.5H695.21V503.23h22.45v14l2.49-2.16v-11.8h13.24l2.71-2.49h-16V478.29H742.6v16.35l2.5-2.38v-14h14.11c.83-.84,1.64-1.68,2.43-2.5H745.1V453.34h22.45v16.27l2.49-2.67v-13.6h12.23c.76-.88,1.48-1.71,2.14-2.49ZM119,550.63H96.52V528.18H119Zm0-25H96.52V503.23H119Zm24.94,49.89H121.46V553.12h22.45Zm0-24.94H121.46V528.18h22.45Zm0-25H121.46V503.23h22.45Zm0-24.94H121.46V478.29h22.45Zm25,99.78H146.41V578.07h22.45Zm0-24.95H146.41V553.12h22.45Zm0-24.94H146.41V528.18h22.45Zm0-25H146.41V503.23h22.45Zm0-24.94H146.41V478.29h22.45Zm0-24.95H146.41V453.34h22.45Zm52.38-72.34h22.45V425.9H221.24Zm-24.94,0h22.45V425.9H196.3Zm-2.5,197.07H171.35V578.07H193.8Zm0-24.95H171.35V553.12H193.8Zm0-24.94H171.35V528.18H193.8Zm0-25H171.35V503.23H193.8Zm0-24.94H171.35V478.29H193.8Zm0-24.95H171.35V453.34H193.8Zm0-24.94H171.35V428.4H193.8v22.45Zm24.95,174.62H196.3V603h22.45Zm0-25H196.3V578.07h22.45Zm0-24.95H196.3V553.12h22.45Zm0-24.94H196.3V528.18h22.45Zm0-25H196.3V503.23h22.45Zm0-24.94H196.3V478.29h22.45Zm0-24.95H196.3V453.34h22.45Zm0-24.94H196.3V428.4h22.45v22.45Zm24.94,174.62H221.24V603h22.45Zm0-25H221.24V578.07h22.45Zm0-24.95H221.24V553.12h22.45Zm0-24.94H221.24V528.18h22.45Zm0-25H221.24V503.23h22.45Zm0-24.94H221.24V478.29h22.45Zm0-24.95H221.24V453.34h22.45Zm0-24.94H221.24V428.4h22.45v22.45Zm24.95,174.62H246.19V603h22.45Zm0-25H246.19V578.07h22.45Zm0-24.95H246.19V553.12h22.45Zm0-24.94H246.19V528.18h22.45Zm0-25H246.19V503.23h22.45Zm24.94,99.79H271.13V603h22.45Zm0-25H271.13V578.07h22.45Zm0-24.95H271.13V553.12h22.45Zm24.95,74.84H296.08V628h22.45Zm0-24.94H296.08V603h22.45Zm0-25H296.08V578.07h22.45Zm25,49.89H321V628h22.45Zm0-24.94H321V603h22.45Zm0-25H321V578.07h22.45Zm24.94,49.89H346V628h22.45Zm0-24.94H346V603h22.45Zm24.95,24.94H370.92V628h22.45Zm0-24.94H370.92V603h22.45Zm24.94,24.94H395.86V628h22.45Zm0-24.94H395.86V603h22.45Zm24.95,24.94H420.81V628h22.45Zm0-24.94H420.81V603h22.45Zm24.94,0H445.75V603H468.2Zm24.95,0H470.7V603h22.45Zm24.94,0H495.64V603h22.45Zm24.95-25H520.59V578.07H543Zm25,0H545.53V578.07H568Zm24.94,0H570.48V578.07h22.45Zm0-24.95H570.48V553.12h22.45Zm25,0H595.43V553.12h22.45Zm0-24.94H595.43V528.18h22.45Zm24.94,0H620.37V528.18h22.45Zm0-25H620.37V503.23h22.45Zm24.95,25H645.32V528.18h22.45Zm0-25H645.32V503.23h22.45Zm0-24.94H645.32V478.29h22.45Zm0-24.95H645.32V453.34h22.45Zm52.38-72.34H742.6V425.9H720.15ZM695.21,378.5h22.45V401H695.21Zm0,24.95h22.45V425.9H695.21Zm-25-49.89h22.45V376H670.26Zm0,24.94h22.45V401H670.26Zm0,24.95h22.45V425.9H670.26Zm22.45,122.23H670.26V503.23h22.45Zm0-24.94H670.26V478.29h22.45Zm0-24.95H670.26V453.34h22.45Zm0-24.94H670.26V428.4h22.45v22.45Zm24.95,49.89H695.21V478.29h22.45Zm0-24.95H695.21V453.34h22.45Zm0-24.94H695.21V428.4h22.45v22.45Zm24.94,24.94H720.15V453.34H742.6Zm0-24.94H720.15V428.4H742.6v22.45Zm24.95,0H745.1V428.4h22.45v22.45Z"/><path class="cls-2" d="M69.08,547.84q1.07,1,2.49,2.28V536.51q-1.42,2.09-2.49,3.71Z"/><g class="cls-1"><g class="cls-1"><path class="cls-2" d="M66,544.94,9.15,514c3.46-5.47,69.12-109.44,189.07-184.68l56.86,30.93C135.13,435.51,69.46,539.47,66,544.94"/></g></g></g><g class="cls-1"><g class="cls-1"><g class="cls-1"><path class="cls-2" d="M452.06,407.05,395.2,376.12A64.52,64.52,0,0,0,435.38,383c41.53-5.84,75.26-46.91,75.35-91.75,0-28.86-13.86-52.25-34.87-63.68l56.86,30.94c21,11.42,34.92,34.81,34.87,63.67-.09,44.84-33.82,85.91-75.35,91.75a64.52,64.52,0,0,1-40.18-6.91"/></g></g><path class="cls-2" d="M641.23,264.57A372.91,372.91,0,0,0,447.65,220L504.51,251A372.91,372.91,0,0,1,698.09,295.5Z"/><g class="cls-1"><g class="cls-1"><path class="cls-2" d="M382,536.07l-56.86-30.94c-57.52-31.29-95.62-95.31-95.47-174.35a247.87,247.87,0,0,1,3.57-41.39l56.86,30.93a247.88,247.88,0,0,0-3.58,41.39c-.14,79,38,143.06,95.48,174.36"/></g></g><path class="cls-2" d="M692.68,355.64h0c.2-.94.38-1.88.57-2.82l.33-1.62a251,251,0,0,0,4.59-43c0-1.45.06-2.91.06-4.37,0-2.81-.05-5.58-.14-8.35q-2.12-1.14-4.28-2.25l-1.38-.72c-1-.52-2-1-3-1.54l-1.56-.79-3.38-1.66L683.3,288q-2.07-1-4.17-2l-1.92-.89c-.86-.4-1.73-.8-2.61-1.19l-2.11-1-2.69-1.19a375.59,375.59,0,0,0-51.5-18.15h0c-1.66-.45-3.34-.89-5-1.32l-.74-.19q-2.73-.69-5.48-1.35l-.22-.05q-5.76-1.36-11.67-2.57h0a371.15,371.15,0,0,0-37.95-5.69h0q-6.84-.67-13.86-1.09l-.53,0c-12-.7-24.32-.86-37-.39h0l-1.31,0h0l.62,0,.8,0h0C538,252.75,563,277.45,567,312.12c.18,1.62.32,3.25.42,4.9a2.26,2.26,0,0,1,0,.26c0,.68.07,1.36.09,2.05,0,.18,0,.36,0,.54q0,1.15,0,2.34h0c0,.66,0,1.33,0,2s0,1.05-.06,1.57c0,.12,0,.24,0,.36-.06,1.29-.15,2.57-.26,3.85h0a94.42,94.42,0,0,1-6.16,26.09c-.4,1-.82,2-1.25,3l0,.1q-1.29,3-2.77,5.87l-.06.12c-.49,1-1,1.92-1.53,2.86a98,98,0,0,1-13.52,18.74h0c-.71.77-1.43,1.53-2.16,2.27h0c-.72.74-1.45,1.46-2.2,2.17l0,0c-.71.67-1.43,1.33-2.15,2l-.31.28c-.72.63-1.44,1.26-2.17,1.87a87.09,87.09,0,0,1-19.79,12.47c-1,.45-2,.88-3,1.29l-.27.11c-1,.39-2,.76-3,1.12l-.34.11q-1.5.53-3,1l-.23.07q-1.57.46-3.18.87a72.76,72.76,0,0,1-7.78,1.53,67.32,67.32,0,0,1-23.75-.8h0q-2.19-.48-4.32-1.11L464,412c-.64-.19-1.29-.39-1.92-.6l-.2-.07a60.83,60.83,0,0,1-6.05-2.39l-.17-.08c-.61-.28-1.21-.58-1.81-.88l-.13-.06a63.74,63.74,0,0,1-5.62-3.22l-.15-.1q-.88-.57-1.74-1.17h0q-1.8-1.26-3.51-2.64l0,0c-.54-.44-1.08-.89-1.61-1.35l-.11-.1a63.3,63.3,0,0,1-4.72-4.55l-.05-.06c-.49-.51-1-1-1.43-1.58l-.06-.07a66.74,66.74,0,0,1-4.13-5.25l0-.05a68.76,68.76,0,0,1-4.73-7.75l0-.05A71.47,71.47,0,0,1,422,371.4v0c-.82-2.24-1.54-4.53-2.16-6.89h0a83.4,83.4,0,0,1-2.63-21.14,90.79,90.79,0,0,1,.94-12.81q.53-3.68,1.35-7.27h0c.27-1.18.56-2.36.87-3.53l0-.09c.32-1.17.65-2.33,1-3.49A98,98,0,0,1,431.43,294h0q1.65-2.7,3.47-5.28l0,0q1.81-2.58,3.79-5h0A93.9,93.9,0,0,1,455,267.67c.79-.61,1.59-1.19,2.41-1.77l.27-.19c.82-.58,1.65-1.15,2.49-1.69l.12-.08q2.64-1.71,5.38-3.23a78.32,78.32,0,0,1,23.68-8.57h0c1-.18,1.93-.35,2.89-.49l-3.12.25h0c-8.31.65-16.74,1.53-25.33,2.74-1.22.17-2.43.36-3.65.54h0a401.3,401.3,0,0,0-48.08,10.3l-.38.1c-2.25.63-4.49,1.27-6.71,1.94h0q-15.6,4.65-30.52,10.38l-.28.11q-14.7,5.63-28.7,12.15h0l-4.93,2.32-.05,0q-3.48,1.67-6.92,3.37h0q-10.77,5.37-21.09,11.17h0c-1.85,1-3.69,2.08-5.52,3.14l-.21.12q-8.47,4.89-16.64,10c-.71,4.13-1.3,8.28-1.8,12.44h0c-.64,5.37-1.12,10.78-1.41,16.22h0c-.23,4.23-.36,8.46-.37,12.72a236.4,236.4,0,0,0,1.29,25.06v.1c.17,1.66.36,3.3.57,4.93l0,.25c.21,1.6.43,3.2.66,4.78,0,.1,0,.2.05.3A208.7,208.7,0,0,0,305.66,453a1.47,1.47,0,0,1,.1.22q3.89,8.43,8.48,16.3l0,0c1,1.67,2,3.31,3,4.94l.33.52q1.47,2.34,3,4.62l.2.3c2.23,3.3,4.55,6.53,7,9.66h0a175.26,175.26,0,0,0,38.91,37h0q6,4.18,12.45,7.83l0,0a170.25,170.25,0,0,0,21.3,10.23h0a172.72,172.72,0,0,0,43.15,10.9h0c1.52.18,3,.34,4.58.48l.14,0q2.26.21,4.56.36h.18c1.52.1,3.05.19,4.59.25h.13c1.57.07,3.13.11,4.71.13h0A192.69,192.69,0,0,0,492,555l.78-.12h0c1.27-.19,2.54-.38,3.81-.59l2.27-.39,2.56-.47,1.91-.37c1.46-.29,2.91-.59,4.36-.91h0A210.08,210.08,0,0,0,535.1,544l1.56-.58q4.38-1.66,8.68-3.51h0a226.36,226.36,0,0,0,21.59-10.66h0l1.78-1,2-1.16c1.22-.72,2.43-1.45,3.64-2.18l1-.65,2.55-1.6h0q9.72-6.2,18.9-13.36h0c1.6-1.25,3.19-2.51,4.76-3.8l.19-.16c1.59-1.31,3.17-2.63,4.74-4h0q8.61-7.44,16.59-15.66h0q2.15-2.22,4.23-4.48l.17-.18c1.37-1.48,2.72-3,4.06-4.5h0q7.56-8.58,14.41-17.85h0c1.23-1.66,2.44-3.33,3.63-5l.12-.16a272,272,0,0,0,18.81-31l0-.1q1.49-2.87,2.9-5.77h0A265.64,265.64,0,0,0,682.47,391c.07-.21.14-.41.22-.61q.91-2.54,1.79-5.1c.19-.55.38-1.11.56-1.66.28-.85.57-1.71.84-2.56h0a259.25,259.25,0,0,0,6.8-25.46Z"/><path class="cls-3" d="M667.86,280.93a374.41,374.41,0,0,0-49.56-17.31l.51.51,41.07,41.08L668.7,314l26.69,26.68a252.33,252.33,0,0,0,2.71-29.54Z"/><path class="cls-3" d="M651.06,363.92,610,322.84,601.17,314,585.05,297.9,560.1,273l-8.82-8.82-13.06-13c-10.52-.49-21.32-.56-32.4-.15l.11.1C538,252.75,563,277.45,567,312.12l1.9,1.91,16.13,16.12,24.94,25,8.82,8.82L659.88,405l8.82,8.82,2.84,2.84q5.38-11,9.76-22.5l-21.42-21.41Z"/><path class="cls-3" d="M651.06,314,610,273l-8.82-8.82-6-6q-5-1-10.13-1.92-13.54-2.36-27.82-3.77l2.87,2.87,8.82,8.81,16.13,16.13L610,305.21l8.82,8.82,41.07,41.07,8.82,8.82,17.18,17.18a259.25,259.25,0,0,0,6.8-25.46l-32.8-32.8Z"/><path class="cls-3" d="M651.06,413.81,610,372.74l-8.82-8.82-16.12-16.13L567.23,330a94.42,94.42,0,0,1-6.16,26.09l7.85,7.85L585.05,380,610,405l8.82,8.82,25,24.94,9.56,9.57c2.1-3.15,4.14-6.33,6.11-9.57q3.17-5.16,6.09-10.48l-5.64-5.64Z"/><path class="cls-3" d="M610,422.63l-8.82-8.82-16.12-16.13L560.1,372.74l-4.68-4.69a98,98,0,0,1-13.52,18.74L560.1,405l8.82,8.82,16.13,16.12,8.81,8.82L610,454.88l8.82,8.82,12.81,12.81q7.56-8.58,14.41-17.85l-19.91-19.91Z"/><path class="cls-3" d="M601.17,463.7l-16.12-16.13-8.82-8.82L560.1,422.63l-8.82-8.82-18.4-18.41a87.09,87.09,0,0,1-19.79,12.47l5.94,5.94L544,438.75l16.13,16.13,8.82,8.82,16.13,16.13,21.51,21.51q8.61-7.44,16.59-15.66L610,472.52Z"/><path class="cls-3" d="M369.35,314l41.08,41.07,8.82,8.82.56.57a83.4,83.4,0,0,1-2.63-21.14,90.79,90.79,0,0,1,.94-12.81l-7.69-7.7L401.61,314,368,280.43q-11.47,4.59-22.52,9.73l15.05,15Z"/><path class="cls-3" d="M465.71,260.71a78.41,78.41,0,0,1,23.68-8.57l-.23-.24c-8.31.65-16.74,1.53-25.33,2.74-1.22.17-2.43.36-3.65.54l.14.14Z"/><path class="cls-3" d="M438.72,283.61A94.56,94.56,0,0,1,455,267.67l-3.53-3.54-6.4-6.39c-8.92,1.69-17.69,3.69-26.31,5.94l.46.45Z"/><path class="cls-3" d="M419.25,314l2.12,2.12A98,98,0,0,1,431.43,294l-21-21L405,267.52q-12.32,3.68-24.22,8l29.66,29.66Z"/><path class="cls-3" d="M501.39,513.59l-41.07-41.07-8.82-8.82-24.95-24.95-16.12-16.12-8.82-8.82-41.07-41.07-8.82-8.82-16.13-16.13-24.95-25L301.83,314l-.53-.53q-5.67,3.36-11.19,6.82c-.71,4.13-1.3,8.28-1.8,12.44l22.33,22.34,8.82,8.82L335.59,380l25,24.95,8.81,8.82,24.95,24.94,16.13,16.13,8.82,8.82,41.07,41.07,8.82,8.82,38.53,38.53a208.55,208.55,0,0,0,25-7.23l-22.48-22.48Z"/><path class="cls-3" d="M551.28,513.59l-41.07-41.07-8.82-8.82-24.95-24.95-16.12-16.12-8.82-8.82-41.07-41.07-8.82-8.82-41.07-41.08L351.72,314,335.59,297.9l-2-2q-10.77,5.37-21.09,11.17l7,7,16.13,16.12,25,25,8.81,8.82L410.43,405l8.82,8.82,24.94,24.94,16.13,16.13,8.82,8.82,41.07,41.07,8.82,8.82,26.32,26.32a226.36,226.36,0,0,0,21.59-10.66l-6.84-6.84Z"/><path class="cls-3" d="M401.61,513.59l-41.07-41.07-8.82-8.82-16.13-16.13-8.82-8.82-16.13-16.12-8.81-8.82-11.92-11.92a210.91,210.91,0,0,0,9.86,36.86q1.62,4.41,3.42,8.68l7.45,7.45,8.82,8.82,16.13,16.13,25,24.94,8.81,8.82,31.09,31.09a172.72,172.72,0,0,0,43.15,10.9l-33.16-33.17Z"/><path class="cls-3" d="M560.1,472.52l-8.82-8.82-24.94-24.95-16.13-16.12-8.82-8.82L500,412.43a72.76,72.76,0,0,1-7.78,1.53,67.32,67.32,0,0,1-23.75-.8l.65.65,24.94,24.94,16.13,16.13L519,463.7l41.07,41.07,8.82,8.82,9.05,9q3.57-2.28,7.08-4.68,6-4.15,11.82-8.68l-11.82-11.82Z"/><path class="cls-3" d="M335.59,497.46l-7.85-7.84q3.78,4.88,7.85,9.45a174.55,174.55,0,0,0,23.93,22.32l-7.8-7.8Z"/><path class="cls-3" d="M451.5,513.59l-41.07-41.07-8.82-8.82-24.95-24.95-16.12-16.12-8.82-8.82-16.13-16.13-24.95-24.94-8.81-8.82L286.9,349c-.23,4.23-.36,8.46-.37,12.72,0,6.77.28,13.43.81,20l23.3,23.3,8.82,8.82,16.13,16.12,8.82,8.82,16.13,16.13,8.81,8.82,41.08,41.07,8.82,8.82,41.07,41.07,2.17,2.17A192.69,192.69,0,0,0,492,555l.78-.12-32.44-32.44Z"/><path class="cls-2" d="M435.42,220.72c-9.3.66-18.78,1.63-28.45,3-65.76,9.24-124.08,34.54-173.72,65.68l56.86,30.93c49.64-31.14,108-56.44,173.72-65.68,9.67-1.36,19.14-2.32,28.45-3Z"/></g><g class="cls-1"><path class="cls-3" d="M492.16,172c4.1-.3,8.19-.53,12.23-.68,35.84,1.15,63.15,30.82,63.07,71.23-.08,44.84-33.82,85.92-75.34,91.75S417,308.52,417.06,263.68,450.74,178,492.16,172Z"/><path class="cls-2" d="M532.59,178.87l-56.85-30.93a62.81,62.81,0,0,0-28.21-7.56c-4,.15-8.13.38-12.23.68-41.42,6-75,47-75.1,91.69-.06,28.88,13.87,52.27,34.88,63.71l56.86,30.93c-21-11.44-34.94-34.83-34.88-63.71C417.14,219,450.74,178,492.16,172c4.1-.3,8.19-.53,12.23-.68a63.32,63.32,0,0,1,23.36,5.19c1.65.72,3.27,1.51,4.84,2.37Z"/></g></svg>