<svg id="Layer_1" data-name="Layer 1" xmlns="http://www.w3.org/2000/svg" viewBox="0 0 800 800"><defs><style>.cls-1{fill:#f2f2f2;}.cls-2{fill:#222;}</style></defs><path class="cls-1" d="M741.41,125.06a93.62,93.62,0,0,0-70.56-15c-23,4.33-42.5,16.43-58,36-2,2.51-4.2,5.46-7,9.3C602,160.7,596.83,168.12,590,178c-12.07,17.58-27.9,41.08-43.2,63.81l-5,7.44c-7.16-5.63-15.29-11.68-24.76-18.24a93.63,93.63,0,0,0-70.56-15c-23,4.33-42.5,16.44-58,36-2,2.51-4.2,5.47-7,9.3-3.88,5.38-9.06,12.8-15.85,22.7-12.07,17.59-27.9,41.09-43.2,63.81l-5,7.44c-7.16-5.64-15.28-11.68-24.75-18.24a93.65,93.65,0,0,0-70.57-15c-23,4.33-42.49,16.44-58,36-2,2.51-4.2,5.46-7,9.3-3.88,5.38-9.07,12.8-15.86,22.7-12.06,17.59-27.89,41.08-43.2,63.81C78.31,483.2,51.73,522.66,42.5,535.39A93.49,93.49,0,0,0,129.15,690c23-4.33,42.5-16.43,58-36,2-2.51,4.2-5.46,7-9.3,3.88-5.38,9.06-12.8,15.85-22.7,12.07-17.58,27.9-41.08,43.2-63.81l5-7.44c7.16,5.64,15.28,11.69,24.75,18.25a93.6,93.6,0,0,0,70.57,15c23-4.33,42.49-16.43,58-36,2-2.51,4.2-5.46,7-9.3,3.88-5.37,9.06-12.8,15.86-22.7,12.06-17.58,27.89-41.08,43.2-63.81l5-7.44c7.16,5.63,15.29,11.68,24.76,18.24a93.61,93.61,0,0,0,70.57,15c23-4.33,42.49-16.44,58-36,2-2.51,4.2-5.46,7-9.3,3.88-5.38,9.07-12.8,15.86-22.7,12.06-17.59,27.89-41.08,43.2-63.81,19.83-29.45,46.41-68.91,55.64-81.64a93.54,93.54,0,0,0-16.09-139.55ZM63.18,518.27a92.8,92.8,0,0,1,43.62-13.49A93.9,93.9,0,0,0,63.18,518.27Z"/><path class="cls-2" d="M754.91,136.56l.59.46a94,94,0,0,0-14.09-12c-1.71-1.19-3.48-2.29-5.26-3.36l13.5,10.7Z"/><path class="cls-2" d="M763.23,213.3l-9.61-7.61-5.26-4.16-9.61-7.61-14.86-11.77L718.63,178,694.16,158.6l-5.26-4.16-24.47-19.38-5.26-4.16-14.72-11.65c-1.69.89-3.36,1.83-5,2.84l19.6,15.51,5.25,4.16,24.48,19.39,5.25,4.16,24.48,19.38,5.25,4.16,9.61,7.61,14.87,11.77,5.25,4.16,14.87,11.77h0L777,231c.6-1.83,1.15-3.66,1.63-5.51l-.56-.44Z"/><path class="cls-2" d="M688.19,192.36,663.72,173l-5.26-4.16L643.6,157.05l4.41,9.33-4.41-9.33L634,149.44l-5.26-4.16-9-7.14c-1.22,1.28-2.43,2.59-3.61,4L628.61,152l5.25,4.16,14.87,11.77,9.61,7.61,5.25,4.16,24.48,19.38,5.25,4.16,9.61,7.61,5.38-2.54-14.86-11.77Z"/><path class="cls-2" d="M710,120.2,724.82,132l9.61,7.61,5.26,4.16,24.47,19.39,5.26,4.16,7.81,6.18a93.05,93.05,0,0,0-3.7-9.73l-4-3.16-5.26-4.16L739.81,137l-5.25-4.16-14.87-11.77-9.61-7.61-4.23-3.35a95,95,0,0,0-10.37-1.41l9.22,7.3Z"/><path class="cls-2" d="M694.74,127.39l24.47,19.38,5.26,4.16,14.87,11.77h0l9.61,7.61,5.25,4.16,9.61,7.61,14.87,11.77,2.8,2.22q-.24-3.72-.77-7.41l-1.91-1.51-9.61-7.61-14.86-11.77-5.26-4.16-14.86-11.77-9.62-7.61-5.25-4.16-24.48-19.38-5.25-4.16-9.76-7.73c-2.46.22-4.91.56-7.36,1l17,13.46Z"/><path class="cls-2" d="M679.52,134.58,704,154l5.25,4.16,24.48,19.38,5.25,4.16,9.61,7.61,5.26,4.16,9.61,7.61,5.25,4.16,12.07,9.56q.44-3.13.65-6.29l-12.59-10-5.26-4.16L754,186.73l-5.25-4.16L739.11,175l-5.26-4.16-24.47-19.38-5.26-4.16-24.48-19.38-5.25-4.17-14-11.07c-2,.62-4,1.29-6,2l19.85,15.73Z"/><path class="cls-2" d="M617.94,201.24l24.47,19.38,5.26,4.16,9.61,7.61,14.86,11.78,5.26,4.16,14.86,11.77,9.61,7.61,5.26,4.16,19.32,15.3q2.7-1.2,5.33-2.58l0,0-24.48-19.38L702,261l-14.87-11.78-9.61-7.61-5.25-4.16-9.61-7.61-14.87-11.77-5.25-4.16-24.48-19.38-5.25-4.16-20.25-16c-.82,1.18-1.66,2.41-2.52,3.67l-.51.73,23.15,18.33Z"/><path class="cls-2" d="M602.72,208.43l24.47,19.38,5.26,4.16,9.61,7.61,14.86,11.77,5.26,4.16,24.47,19.38,5.26,4.17,14.87,11.77L701.65,280,692,272.35l-5.25-4.16L662.3,248.81l-5.25-4.16L647.44,237l-14.87-11.77-5.25-4.16-24.48-19.38-5.25-4.16L584,186.82l-3,4.42,16.45,13Z"/><path class="cls-2" d="M663,210.9l-5.25-4.17-24.48-19.38L628,183.19l-24.47-19.38-2.37-1.87-3.06,4.37,0,0,5.25,4.16,24.48,19.38,5.25,4.17,24.48,19.38,5.26,4.16,9.61,7.61,5.25,4.16-2.56-5.43-2.57-5.43Z"/><path class="cls-2" d="M567.15,211.94l-.11-.08-3,4.43,3,2.35,5.26,4.16,14.86,11.78L582,223.71l-9.61-7.61Z"/><path class="cls-2" d="M639,403.5l-24.48-19.38L609.27,380l-24.48-19.38-5.25-4.16L555.06,337l-5.25-4.16-14.87-11.77-9.61-7.61-5.25-4.16-9.61-7.61L495.6,290l-5.26-4.17-24.47-19.38-5.26-4.16-24.47-19.38-5.26-4.16-14.45-11.44q-2.43,1.42-4.79,3l19.12,15.13,5.25,4.16L460.49,269l5.25,4.17,24.48,19.38,5.25,4.16,9.62,7.61L520,316l5.26,4.16L540.07,332l9.61,7.61,5.26,4.16,24.47,19.38,5.26,4.16,24.47,19.38,5.26,4.17,24.48,19.38,5.25,4.16,7.47,5.91c1-1.39,2-2.86,3-4.39l-10.38-8.22Z"/><path class="cls-2" d="M629,414.85l-5.26-4.16L599.3,391.31l-5.25-4.16-24.48-19.38-5.25-4.16-14.87-11.77-9.61-7.61-5.25-4.16-24.48-19.39-5.25-4.16-9.61-7.61-14.87-11.77L475.13,293,450.65,273.6l-5.26-4.16-24.47-19.38-5.26-4.16-12.05-9.55-1.25,1.09q-1.41,1.22-2.79,2.52l6.36,5h0l9.61,7.61,5.25,4.16,24.48,19.38,5.25,4.16L475,299.68l5.26,4.16,9.61,7.61,14.86,11.78,5.26,4.16,24.47,19.38,5.26,4.16,14.86,11.77h0l9.61,7.61,5.26,4.16,24.47,19.38,5.26,4.16,24.48,19.38,5.25,4.16,9.61,7.61,4.38,3.47,3.1-4.35-2.1-1.66Z"/><path class="cls-2" d="M613.82,422l-5.26-4.16L584.09,398.5l-5.26-4.16L564,382.57,554.35,375l-5.25-4.17-24.48-19.38-5.25-4.16-24.48-19.38-5.25-4.16L480,316.1l-14.87-11.77-5.25-4.16-24.48-19.38-5.26-4.16-14.86-11.77-9.61-7.61-5.26-4.17-7.7-6.1c-1.18,1.32-2.33,2.67-3.46,4.07l11,8.74,5.25,4.16,14.87,11.77,9.61,7.61,5.26,4.16,24.47,19.38L465,311l9.61,7.61,14.86,11.77,5.26,4.16L519.24,354l5.26,4.17L549,377.5l5.26,4.16,14.87,11.77,9.61,7.61L584,405.2l24.48,19.38,5.25,4.16,9.61,7.61,10.43,8.26c.7-.84,1.41-1.68,2.1-2.55.41-.51.82-1.05,1.25-1.6l-8.4-6.65Z"/><path class="cls-2" d="M630.45,339l-5.25-4.16-24.48-19.38-5.26-4.16L571,291.94l-5.26-4.17-9.61-7.61-14.86-11.77L536,264.23l-24.47-19.38-5.26-4.16-14.86-11.77-9.61-7.61-5.26-4.16-2.8-2.22a92.16,92.16,0,0,0-9.25-.52l11.92,9.44,5.26,4.16,14.87,11.77,9.61,7.61,5.25,4.16,24.48,19.38,5.25,4.17,9.61,7.61,14.87,11.77,5.25,4.16L595.34,318l5.25,4.16,24.48,19.38,5.26,4.16,14.86,11.77-5.13-10.86Z"/><path class="cls-2" d="M654.22,396.32l-24.48-19.38-5.25-4.17L600,353.39l-5.25-4.16-24.48-19.38L565,325.69l-24.48-19.38-5.26-4.16-9.61-7.61-5.25-4.16-9.61-7.61-5.26-4.16-24.47-19.38-5.26-4.17-24.47-19.38-5.26-4.16-14.45-11.44c-1.93.7-3.84,1.45-5.72,2.27L446,238.22l5.25,4.17,24.48,19.38,5.25,4.16,24.48,19.38,5.25,4.16,9.61,7.61,5.26,4.16,9.61,7.61,5.25,4.16,24.48,19.38,5.26,4.16,24.47,19.39,5.26,4.16,24.47,19.38,5.26,4.16L654.09,403l5.26,4.16.83.66c1-1.44,2-2.91,3-4.42l-3.72-2.94Z"/><path class="cls-2" d="M613.46,441,598.6,429.23l-5.26-4.16-14.86-11.78-9.61-7.6-5.26-4.17-24.47-19.38L533.88,378,509.4,358.6l-5.25-4.16-24.48-19.38-5.25-4.16-9.61-7.61-14.87-11.77-5.25-4.16-14.87-11.78h0L420.21,288,415,283.81l-24.48-19.38-5.26-4.16-1.87-1.48-1.81,2.49-1.31,1.83L385.1,267l5.25,4.17,24.48,19.38,5.26,4.16L435,306.45h0l9.61,7.61,5.26,4.16,9.61,7.61,14.86,11.77,5.26,4.16L504,361.14l5.26,4.16,24.48,19.38,5.25,4.17,24.48,19.38,5.25,4.16,14.87,11.77h0l9.61,7.61,5.25,4.16,9.61,7.61L623,455.31l.27.22q2-1.78,3.91-3.71l-4.06-3.21Z"/><path class="cls-2" d="M607.85,455.8l-9.61-7.61-2.69,1.27,2.69-1.27L593,444l-9.61-7.61-5.26-4.16-24.47-19.38-5.26-4.16-24.47-19.38-5.26-4.16-24.47-19.38-5.26-4.16-24.48-19.38-5.25-4.16-9.61-7.61-2.69,1.27,2.69-1.27-5.26-4.17-9.61-7.61-5.25-4.16L405,295.16,399.74,291l-24.48-19.38-.66-.53q-1.46,2.09-3.05,4.39l3.59,2.84,24.47,19.38,5.26,4.16,24.47,19.39,5.26,4.16,9.61,7.61,5.25,4.16h0l9.61,7.61,5.26,4.16,24.47,19.38,5.26,4.16,24.48,19.38,5.25,4.16,24.48,19.38,5.25,4.16L578,439l5.25,4.16,9.61,7.61,5.26,4.16,9.61,7.61,3.12,2.47q2.34-1.5,4.61-3.16L613.11,460Z"/><path class="cls-2" d="M517.25,461l-14.87-11.77h0l-9.61-7.61-5.25-4.16L463,418.08l-5.26-4.16-24.47-19.38-5.26-4.16L403.58,371l-5.26-4.17-9.61-7.61-14.86-11.77-5.26-4.16-14.86-11.77,5.13,10.86,9.61,7.61,5.25,4.17,9.61,7.61,14.87,11.77,5.25,4.16,24.48,19.38,5.25,4.16,24.48,19.38,5.25,4.16,24.48,19.38,5.26,4.16,14.86,11.77,9.61,7.61,4.13,3.27A93.62,93.62,0,0,0,537,476.62L522.5,465.16Z"/><path class="cls-2" d="M592.64,463,583,455.37,568.16,443.6l-5.26-4.16-24.47-19.38-5.26-4.16L508.7,396.52l-5.26-4.16L479,373l-5.26-4.17L458.85,357h0l-9.62-7.61L444,345.27l-9.61-7.61L419.5,325.89l-5.25-4.16-24.48-19.38-5.25-4.16L366,283.53l-.31.45L363,287.93l21.41,17,5.26,4.16,24.47,19.38,5.26,4.16L429,340.2,443.85,352l5.26,4.17L464,367.91l9.61,7.61,5.25,4.16,24.48,19.38,5.25,4.16,24.48,19.38,5.25,4.16,24.48,19.38L568,450.3l9.61,7.61,14.87,11.77,3.69,2.92c1.85-.76,3.69-1.57,5.49-2.45l-3.8-3Z"/><path class="cls-2" d="M577.42,470.17l-9.61-7.61-14.87-11.77-5.26-4.16-24.47-19.38L518,423.09,493.48,403.7l-5.26-4.16-14.86-11.77h0l-9.61-7.61L458.49,376,434,356.62l-5.26-4.16-9.61-7.61-14.87-11.77L399,328.92l-24.48-19.38-5.25-4.16L357.47,296l-3,4.42,14.7,11.65,5.26,4.16,24.47,19.38,5.26,4.16,9.61,7.61,14.87,11.77,5.25,4.16,24.48,19.38,5.25,4.17,14.87,11.77h0l9.61,7.61,5.25,4.16,24.48,19.38,5.25,4.16,24.48,19.38,5.26,4.16,9.61,7.61,14.86,11.77,1.28,1q3.36-.66,6.63-1.55l-2.53-2Z"/><path class="cls-2" d="M552.59,469.75,537.72,458l-5.25-4.16L508,434.43l-5.26-4.16L487.87,418.5l-9.61-7.61L473,406.73l-24.47-19.38-5.26-4.16L418.8,363.81l-5.26-4.16L403.93,352l-14.86-11.77-5.26-4.16-24.48-19.39-5.25-4.16-5.1-4L346,313l8,6.31,5.26,4.17,24.48,19.38,5.25,4.16,9.61,7.61,2.85-1.35-2.85,1.35,14.87,11.77,5.25,4.16,24.48,19.38,5.25,4.16,24.48,19.38,5.25,4.16L493,429.37l9.61,7.6,5.25,4.17,24.48,19.38,5.26,4.16,9.61,7.61,9.14,7.24q4.29.2,8.59,0l-2.74-2.17Z"/><path class="cls-2" d="M457.08,451.83,432.6,432.45l-5.25-4.16-24.48-19.38-5.26-4.16L382.75,393l-9.61-7.61-5.26-4.16-9.61-7.61-14.86-11.77-5.26-4.16L323.6,346.14l-1.11,1.65-1.88,2.79L338,364.37l5.25,4.16,9.61,7.61h0l14.87,11.77,5.25,4.16,14.87,11.77,9.61,7.61,5.25,4.16L427.22,435l5.26,4.17L457,458.54l5.26,4.16,5.37,4.25c1-1.48,2-2.95,3-4.43L462.33,456Z"/><path class="cls-2" d="M441.86,459l-24.48-19.38-5.25-4.16-14.87-11.77,5.13,10.86,9.61,7.61,5.26,4.16,24.47,19.38,5.26,4.17,12.13,9.6,3-4.43-15-11.88Z"/><path class="cls-2" d="M426.64,466.21l-14.87-11.77-9.61-7.61-5.25-4.16-24.48-19.38-5.25-4.16L342.7,399.74l-5.25-4.16L327.83,388,313,376.2,307.71,372l-24.47-19.38L278,348.5l-14.86-11.77h0l-9.61-7.61L248.25,325l-5.72-4.53q-4.22-.14-8.45.1l14,11.13,5.25,4.16,14.87,11.77,9.61,7.61,5.25,4.16,24.48,19.38,5.25,4.16,9.61,7.61,14.87,11.78,5.26,4.16,24.47,19.38,5.26,4.16,24.47,19.38,5.26,4.16L416.9,465.3h0l9.61,7.61,5.26,4.16L450.65,492l3-4.43-21.75-17.22Z"/><path class="cls-2" d="M426.28,485.17l-9.61-7.61-5.25-4.16L386.94,454l-5.25-4.17-24.48-19.38L352,426.31l-24.48-19.38-5.25-4.16-9.61-7.61-14.87-11.77-5.25-4.16-14.87-11.77,5.13,10.86,9.61,7.61,5.26,4.16,9.61,7.61,14.86,11.77,5.26,4.16L351.83,433l5.26,4.17,24.47,19.38,5.26,4.16,24.47,19.38,5.26,4.16L431.42,496l9.61,7.61,1.12.89,3-4.42-4-3.17Z"/><path class="cls-2" d="M472.3,444.65l-24.48-19.38-5.25-4.16-24.48-19.39-5.26-4.16-24.47-19.38L383.1,374l-9.61-7.61-5.25-4.16,2.56,5.43,2.57,5.43,9.61,7.61,5.25,4.17,24.48,19.38,5.25,4.16,24.48,19.38L447.7,432l24.47,19.38,3.86,3,1.48-2.19L479,450l-1.47-1.16Z"/><path class="cls-2" d="M268.6,328.63,293.08,348l5.25,4.17,24.48,19.38,5.25,4.16,9.61,7.61,14.87,11.77,5.25,4.16,24.48,19.38,5.26,4.16,14.86,11.77-5.13-10.86-9.61-7.61-5.25-4.16-24.48-19.38-5.26-4.16-9.61-7.61L328.19,369l-5.26-4.17-24.47-19.38-5.26-4.16L276.26,327.9A93,93,0,0,0,261.51,323l1.84,1.45Z"/><path class="cls-2" d="M344.12,323.91l-3.61-2.85-3,4.43,1.21,1,5.26,4.16,14.87,11.77-5.13-10.86Z"/><path class="cls-2" d="M358.63,354.64l-5.26-4.16L332.05,333.6c-1,1.47-2,2.95-3,4.43l24.19,19.15,5.25,4.16,9.61,7.61,5.26,4.16-2.57-5.43-2.56-5.43Z"/><path class="cls-2" d="M410.71,511.31l-24.47-19.38L381,487.77l-24.47-19.38-5.26-4.16-24.48-19.38-5.25-4.16-14.87-11.77,5.13,10.86,9.61,7.61,5.26,4.16,24.47,19.38,5.26,4.16,24.48,19.38,5.25,4.16L410.59,518l5.25,4.16,9.18,7.26c1-1.38,2-2.84,3.05-4.38L416,515.47Z"/><path class="cls-2" d="M400.75,522.66l-5.26-4.16L371,499.12,365.76,495l-24.47-19.38L336,471.42l-14.86-11.77,5.13,10.86,9.61,7.61,5.25,4.16,24.48,19.38,5.25,4.16,24.48,19.38,5.25,4.16,9.61,7.61,6,4.77c.7-1,1.43-1.94,2.2-3l.94-1.3-3.78-3Z"/><path class="cls-2" d="M425.93,504.13l-24.47-19.38-5.26-4.17L371.72,461.2,366.47,457,342,437.66l-5.25-4.16-24.48-19.38L307,410l-9.61-7.61-5.26-4.16-9.61-7.61-5.25-4.16L252.8,367l-5.26-4.17-24.47-19.38-5.26-4.16L203.1,327.68c-1.84.78-3.66,1.6-5.45,2.49l20,15.86,5.25,4.17,24.48,19.38,5.25,4.16,24.48,19.38,5.26,4.16,9.61,7.61,5.25,4.16,9.61,7.61,5.26,4.16,24.47,19.38,5.26,4.16,24.47,19.38,5.26,4.17,24.48,19.38,5.25,4.16,24.48,19.38,5.25,4.16,2.56,2,.69-1,2.33-3.41-5.45-4.32Z"/><path class="cls-2" d="M400.39,541.62l-14.86-11.77-5.26-4.16L355.8,506.31l-5.26-4.16-14.86-11.78-9.61-7.61-5.26-4.16-24.47-19.38-5.26-4.16L266.6,435.68l-5.25-4.16-9.61-7.61-5.38,2.54,14.86,11.77,5.26,4.16L291,461.76l5.25,4.16,24.48,19.39,5.25,4.16,14.87,11.77,9.61,7.61,5.25,4.16,24.48,19.38,5.25,4.16,9.61,7.61,11.81,9.35q1.77-2,3.47-4l-.29-.23Z"/><path class="cls-2" d="M385.18,548.81,370.31,537l-5.26-4.16L350.19,521.1,355.32,532l9.61,7.61,5.25,4.16,9.62,7.61,14.86,11.77,1.22,1c1.38-1.14,2.73-2.35,4.06-3.58l-5.15-4.08Z"/><path class="cls-2" d="M379.57,563.6,370,556l-5.26-4.16-9.61-7.61-5.25-4.16-24.48-19.38-5.26-4.16-24.47-19.38L290.37,493,265.9,473.6l-5.26-4.16-24.47-19.38-5.26-4.17-9.61-7.61-5.25-4.16-9.61-7.61-5.26-4.16L176.7,403l-5.25-4.16L148,380.26l-3,4.39,1.87,1.48,24.47,19.38,5.26,4.16,24.47,19.38,5.26,4.17,9.61,7.6,5.26,4.17,9.61,7.61,5.25,4.16,24.48,19.38,5.25,4.16,24.48,19.38,5.25,4.16L320,523.22l5.25,4.16,24.48,19.38,5.26,4.17,9.61,7.61,5.25,4.16h0l9.61,7.61,3.52,2.78q2.44-1.41,4.81-3l-2.95-2.33Z"/><path class="cls-2" d="M267.31,397.76l-5.25-4.16-24.48-19.38-5.25-4.16-24.48-19.38-5.26-4.16-14-11.11q-2.32,1.51-4.58,3.18l18.48,14.63,5.25,4.16,24.48,19.38,5.26,4.16,24.47,19.39,5.26,4.16,9.61,7.61,5.38-2.54Z"/><path class="cls-2" d="M236.87,412.14,231.62,408,207.14,388.6l-5.25-4.16L187,372.66l4.41,9.34L187,372.66l-9.61-7.61-5.25-4.16-6.31-5c-.56.68-1.13,1.34-1.68,2s-1.08,1.38-1.65,2.12L172,367.6l5.26,4.16,14.86,11.77,9.61,7.61L207,395.3l24.47,19.38,5.26,4.16,9.61,7.61,5.38-2.54Z"/><polygon class="cls-2" points="216.4 415.17 201.53 403.39 206.66 414.26 216.27 421.87 221.53 426.03 231.14 433.64 236.52 431.1 221.65 419.33 216.4 415.17"/><path class="cls-2" d="M268,359.85l-5.26-4.16-24.47-19.38L233,332.14l-12.44-9.85c-2.23.46-4.43,1-6.59,1.58l18.91,15,5.25,4.16,24.48,19.38,5.25,4.16,14.87,11.77-5.13-10.86Z"/><path class="cls-2" d="M364.35,570.79l-9.61-7.61-14.87-11.77-5.25-4.16-24.48-19.38-5.25-4.16-24.48-19.38-5.26-4.16-24.47-19.39-5.26-4.16-14.86-11.77h0L221,457.24l-5.26-4.16-9.61-7.61L200.7,448l14.87,11.77,5.25,4.16,14.87,11.78,9.61,7.61,5.25,4.16L275,506.87l5.25,4.16,24.48,19.38,5.26,4.16L334.49,554l5.26,4.16,9.61,7.61,14.86,11.77,3.4,2.69c1.95-.69,3.87-1.43,5.75-2.24l-3.77-3Z"/><path class="cls-2" d="M349.13,578l-9.61-7.61L324.65,558.6l-5.25-4.16-24.48-19.38-5.25-4.16-24.48-19.39-5.26-4.16-14.86-11.77L235.46,488l-5.26-4.16-24.47-19.38-5.26-4.16-9.61-7.61L176,440.89l-5.26-4.16-24.47-19.38L141,413.18l-10.08-8-3,4.43,13,10.26,5.25,4.16,24.48,19.38,5.25,4.16,9.61,7.61L200.35,467l5.25,4.16,24.48,19.38,5.25,4.16,14.87,11.77h0l9.61,7.6,5.25,4.17,24.48,19.38,5.26,4.16,24.47,19.38,5.26,4.16,9.61,7.61L349,584.68l.05,0c1.49-.2,3-.44,4.45-.72.86-.16,1.7-.36,2.55-.54l-1.67-1.32Z"/><path class="cls-2" d="M324.3,577.56h0l-14.87-11.77-5.25-4.17L279.7,542.24l-5.25-4.16-14.87-11.77L250,518.7l-5.25-4.16-24.48-19.38L215,491l-24.47-19.38-5.26-4.16-9.61-7.61-14.86-11.77-5.26-4.17-24.47-19.38-5.26-4.16-3.34-2.65-3,4.43,6.22,4.92,5.25,4.17,24.48,19.38,5.25,4.16,9.61,7.61,14.87,11.77,5.25,4.16,24.48,19.38,5.25,4.16,24.48,19.38,5.26,4.16,14.86,11.77,9.61,7.61,5.26,4.17,24.47,19.38,5.26,4.16,9.61,7.61,6.1,4.83q4.68.55,9.42.65l-.53-.41Z"/><path class="cls-2" d="M186,429.54l-24.48-19.38L156.23,406l-16.78-13.29-3,4.41L156.1,412.7l5.26,4.16,24.48,19.38,5.25,4.16L200.7,448l5.38-2.54L191.22,433.7Z"/><path class="cls-2" d="M174.9,347l2.74,5.8,9.61,7.61,5.26,4.16L217,384l5.26,4.16,24.47,19.38,5.26,4.16,9.61,7.61L276.44,431l5.26,4.17,24.47,19.38,5.26,4.16,14.87,11.77-5.13-10.86L311.55,452l-5.25-4.17-24.48-19.38-5.25-4.16L267,416.72,252.09,405l-5.25-4.16-24.48-19.38-5.25-4.16-24.48-19.38-5.25-4.16-11.1-8.79c-.55.5-1.09,1-1.63,1.54-.76.72-1.5,1.45-2.24,2.19l5.23,4.15Z"/><path class="cls-2" d="M191.92,395.78l-5.25-4.16-24.48-19.38-5.25-4.16-.22-.17q-1.44,2-3.1,4.35l3.19,2.52,5.26,4.16,24.47,19.39,5.26,4.16,14.86,11.77-5.13-10.87Z"/><path class="cls-2" d="M228.79,559.64l-24.48-19.38-5.25-4.16-24.48-19.38-5.25-4.16-14.87-11.77h0l-9.61-7.61L139.6,489,130,481.41l-14.87-11.77-5.26-4.16L97.07,455.34l-3,4.44,15.66,12.4,5.25,4.16,9.62,7.61,14.86,11.77,5.26,4.16,14.86,11.77,9.61,7.61,5.26,4.16,24.47,19.38,5.26,4.17,24.47,19.38,5.26,4.16,7.13,5.64,3-4.43-10-7.91Z"/><path class="cls-2" d="M213.57,566.83l-24.48-19.38-5.25-4.16L169,531.52h0l-9.61-7.61-5.25-4.16-24.48-19.38-5.25-4.16-9.61-7.61L99.9,476.82l-5.25-4.16-6-4.77-3,4.43,8.89,7,5.26,4.17,9.61,7.61,14.86,11.77,5.26,4.16L154,526.45l5.26,4.16,14.86,11.77h0l9.61,7.61,5.26,4.16,24.47,19.38,5.26,4.16,13.89,11,3-4.43L218.83,571Z"/><path class="cls-2" d="M198.35,574l-14.86-11.77,4.4,9.33-4.4-9.33-9.62-7.61-5.25-4.16L144.14,531.1l-5.25-4.17-24.48-19.38-5.25-4.16-9.61-7.61L84.68,484l-4.52-3.58-3,4.43,2.14,1.69,5.26,4.16,9.61,7.61,8.55,6.78c1.36-.13,2.72-.25,4.08-.32-1.36.08-2.72.19-4.07.32l6.3,5,5.26,4.17,24.47,19.38L144,537.8l24.47,19.38,5.26,4.16,14.87,11.77,9.61,7.61,5.25,4.16,20.63,16.34,3-4.43-23.5-18.61Z"/><path class="cls-2" d="M212.86,604.75,198,593h0l-9.61-7.61-5.26-4.16-24.47-19.39-5.26-4.16-24.48-19.38-5.25-4.16L99.19,514.74l-5.25-4.16-4.16-3.29c-2.14.51-4.25,1.11-6.34,1.78l10.37,8.21,5.26,4.16,24.47,19.38L128.8,545l24.48,19.38,5.25,4.16L183,587.91l5.25,4.16,14.87,11.77h0l9.61,7.61,2.87,2.27,3-4.42-.5-.39Z"/><path class="cls-2" d="M244,552.46l-24.48-19.38-5.25-4.17L189.8,509.53l-5.25-4.16L160.07,486l-5.25-4.16-9.62-7.61L140,470.06h0l-9.61-7.61-5.26-4.16L105.52,442.8c-1,1.48-2,2.95-3,4.43L125,465l5.25,4.16,9.61,7.61,5.26,4.16h0l9.61,7.61,5.26,4.16,24.47,19.38,5.26,4.17,24.47,19.38,5.26,4.16,24.47,19.38,5.26,4.16.36.29,3-4.44-3.23-2.55Z"/><path class="cls-2" d="M172.11,649.43l-14.87-11.77L152,633.5l-24.48-19.38L122.25,610l-14.86-11.77-9.61-7.61-5.26-4.16L68.05,567l-5.26-4.16L38.32,543.49l-1.49-1.18c-.63.85-1.25,1.71-1.86,2.59-.41.59-.81,1.19-1.21,1.79l4.43,3.5,24.48,19.38,5.25,4.16L92.4,593.11l5.25,4.17,14.87,11.77-4.82-10.21,4.82,10.21,9.61,7.61,5.25,4.16,24.48,19.38,5.26,4.16,9.61,7.61,13.08,10.36q1.84-1.91,3.63-3.93L181.72,657Z"/><path class="cls-2" d="M166.5,664.23l-9.61-7.61L142,644.85l-5.25-4.17L121.9,628.91,127,639.78l9.61,7.61,5.26,4.16,9.61,7.61,14.86,11.77,2,1.6c1.44-1.09,2.85-2.25,4.24-3.44l-.89-.7Z"/><path class="cls-2" d="M151.28,671.41l-9.61-7.61L139,665.07l2.56,5.44,9.61,7.61,3.76,3q2.55-1.32,5-2.82l-3.41-2.7Z"/><polygon class="cls-2" points="141.54 670.51 138.98 665.07 136.29 666.34 141.54 670.51"/><path class="cls-2" d="M136.06,678.6,126.45,671l-5.38,2.54,14.86,11.77,2.9,2.29c2-.6,4-1.28,6-2l-3.55-2.81Z"/><path class="cls-2" d="M120.84,685.79l-9.61-7.61-5.38,2.54,13.32,10.55q3.73-.3,7.47-.89l-.54-.43Z"/><path class="cls-2" d="M27.08,637.58l9.34,7.4-5.13-10.86-8.16-6.46A91.84,91.84,0,0,0,27.08,637.58Z"/><path class="cls-2" d="M79,505.51,83.41,509c2.09-.66,4.21-1.26,6.34-1.78L84.33,503,71.69,493l-3,4.43.65.51Z"/><path class="cls-2" d="M182.42,619.12,158,599.74l-5.26-4.16L128.22,576.2,123,572,98.49,552.66l-5.26-4.16L78.37,536.73l-9.61-7.61L63.5,525l-8.83-7-3,4.4,11.73,9.3,5.26,4.16L83.5,547.59l9.61,7.61,5.25,4.16,24.48,19.38,5.25,4.16,24.48,19.38,5.25,4.16,24.48,19.38,5.25,4.17,9.61,7.61h0l1.28,1,1.68-2.4,1.38-2-13.82-11Z"/><path class="cls-2" d="M172.46,630.47l-5.25-4.16-24.48-19.38-5.26-4.16L113,583.39l-5.26-4.16L92.88,567.45,98,578.32l9.61,7.61,5.25,4.16,24.48,19.38,5.25,4.16L167.08,633l5.26,4.16,9.61,7.61,7.63,6.05c1-1.3,2-2.72,3.18-4.29l-5.43-4.3Z"/><path class="cls-2" d="M136.41,659.64,126.8,652l-5.25-4.16L97.07,628.49l-5.25-4.16L67.34,605l-5.25-4.16L37.61,581.41l-5.26-4.16-9.59-7.6q-.89,2.76-1.58,5.54l11,8.76,5.25,4.16L62,607.49l5.26,4.16L91.69,631,97,635.19l24.47,19.38,5.26,4.16,9.61,7.61,2.69-1.27,2.69-1.27Z"/><path class="cls-2" d="M197.64,611.94l-24.47-19.39-5.26-4.16L143.44,569l-5.26-4.16-24.47-19.38-5.26-4.16L84,521.93l-5.25-4.16-5.85-4.63c-1.54.71-3.07,1.45-4.58,2.24l.69,1.48,9.61,7.61,5.26,4.16L108.33,548l5.25,4.16,24.48,19.38,5.25,4.16,24.48,19.39,5.25,4.16,24.48,19.38,5.25,4.16,4.29,3.4L210,622a2.14,2.14,0,0,0,.13-.19l-7.19-5.69Z"/><path class="cls-2" d="M106.33,655.06,81.85,635.68l-5.25-4.16L52.12,612.14,46.87,608,22.39,588.59,19.11,586q-.41,3.15-.6,6.32l3.76,3,24.47,19.38L52,618.84l24.47,19.38,5.26,4.16,24.47,19.38,5.26,4.16,9.61,7.61,5.38-2.54-14.87-11.77Z"/><path class="cls-2" d="M96.36,666.41l-5.25-4.16L66.63,642.87l-5.25-4.17L36.9,619.32l-5.25-4.16L18.59,604.82c.07,1,.15,2,.25,2.94.16,1.51.36,3,.59,4.53l2.48,2h0l9.61,7.61L36.78,626l24.47,19.38,5.26,4.16L91,669l5.26,4.16,9.61,7.61,5.38-2.54Z"/><path class="cls-2" d="M63.73,512.7l3.85,3,.7-.39c1.5-.79,3-1.53,4.57-2.24l-3.74-3h0L63.85,506l2.57,5.43L63.85,506l-.66-.53c-1,1.5-2,3-3,4.42l3.55,2.81Z"/><path class="cls-2" d="M69,516.86l-.69-1.48c-.24.12-.47.25-.7.38Z"/><path class="cls-2" d="M81.15,673.59l-5.26-4.16L51.41,650.05l-5.25-4.16L31.29,634.12,36.42,645,46,652.59l5.26,4.16,24.47,19.38L81,680.3l9.61,7.61,2.14,1.69c1.6.33,3.21.63,4.83.88,1.9.29,3.81.51,5.73.68L96,685.37Z"/><path class="cls-2" d="M58.17,674.64l-8.72-6.91A92.87,92.87,0,0,0,58.17,674.64Z"/><path class="cls-2" d="M78,555.68,53.54,536.3l-5.26-4.16-2.22-1.76C44.9,532,43.87,533.5,43,534.74l5.19,4.1L53.41,543l24.48,19.39,5.25,4.16L98,578.32l-5.13-10.87-9.61-7.61Z"/><path class="cls-2" d="M107,617.14,82.56,597.76,77.3,593.6,52.83,574.22l-5.26-4.16L28.78,555.18c-.85,1.62-1.63,3.26-2.37,4.92l21,16.66,5.25,4.16L77.18,600.3l5.25,4.16,24.48,19.38,5.26,4.17L127,639.78l-5.13-10.87-9.61-7.61Z"/><polygon class="cls-2" points="297.04 421.31 291.79 417.14 282.18 409.54 276.8 412.08 291.66 423.85 296.92 428.01 311.78 439.78 306.65 428.92 297.04 421.31"/><path class="cls-2" d="M289,568.81,274.09,557l-9.61-7.61-5.25-4.16-24.48-19.38-5.25-4.16L205,502.35l-5.25-4.16L175.29,478.8,170,474.64,160.42,467l-14.86-11.77-5.26-4.16-14.86-11.77h0l-9.61-7.61L114,430.26c-1,1.47-2,2.95-3,4.43l4.71,3.73,14.87,11.77h0l9.61,7.61,5.25,4.16,9.61,7.61,14.87,11.78,5.25,4.16,24.48,19.38,5.26,4.16,24.47,19.38,5.26,4.16L258,551.06l.23-.33c5.92,4.66,12.51,9.61,20,14.89,1.56,1.11,3.14,2.22,4.78,3.36a93.14,93.14,0,0,0,19,10.11L294.21,573Z"/><polygon class="cls-2" points="335.32 509.33 310.85 489.95 305.59 485.79 281.12 466.41 275.86 462.25 251.38 442.87 246.13 438.71 236.52 431.1 231.14 433.64 246 445.41 251.26 449.57 275.74 468.95 280.99 473.11 305.47 492.49 310.72 496.65 335.2 516.03 340.45 520.2 355.32 531.97 350.19 521.1 340.58 513.49 335.32 509.33"/><path class="cls-2" d="M731.79,284.6c-1.74.92-3.51,1.79-5.31,2.59l5.12,4.06,4.83,3.82,3-4.41-2.46-2Z"/><path class="cls-2" d="M709.4,292.9q3.23-.75,6.41-1.72L701.65,280l5.13,10.87Z"/><path class="cls-2" d="M716.51,291.73l-.67-.53c-2.12.66-4.26,1.22-6.42,1.72l7,5.52,5.25,4.16,6.3,5,3-4.43-9.17-7.26Z"/><path class="cls-2" d="M762.88,232.26,738.4,212.88l-5.26-4.17-9.61-7.61-14.86-11.77-5.26-4.16-24.47-19.38-5.26-4.16-24.47-19.38L644,138.09l-12.88-10.2-.91.71c-1.11.89-2.22,1.81-3.31,2.75l7.37,5.83,9.61,7.61,5.25,4.16,24.48,19.38,5.25,4.16,24.48,19.38,5.25,4.17,9.61,7.61L733,215.42l5.25,4.16L762.75,239l5.26,4.16,2.9,2.3q1.27-2.43,2.4-4.9l-5.18-4.1Z"/><path class="cls-2" d="M747.66,239.44l-24.48-19.38-5.25-4.16-9.62-7.61-5.38,2.54L717.8,222.6l5.26,4.16,24.47,19.39,5.26,4.16,10,7.9c.77-1,1.53-2,2.26-3.11l.84-1.24-13-10.26Z"/><path class="cls-2" d="M732.44,246.63,708,227.25l-5.25-4.16-9.61-7.61-14.87-11.77L673,199.55l-14.86-11.77h0l-9.61-7.61L643.24,176l-24.47-19.38-5.26-4.16L610,149.7c-1,1.3-2,2.71-3.17,4.29l6.54,5.17,5.25,4.17,24.48,19.38,5.25,4.16,14.87,11.77,9.61,7.61,5.26,4.16,9.61,7.61,14.86,11.77,5.26,4.16,24.47,19.38,5.26,4.16,16,12.67c1.14-1.64,2.18-3.1,3.08-4.36l-18.95-15Z"/><path class="cls-2" d="M722.47,258l-5.25-4.16-24.48-19.38-5.25-4.16-9.61-7.61-5.26-4.16,2.57,5.43,2.56,5.43,9.61,7.61,5.26,4.16,24.47,19.38,5.26,4.16L745,282.59l3-4.41-1-.82Z"/><path class="cls-2" d="M685.36,344l-24.47-19.38-5.26-4.17L631.16,301.1l-5.26-4.16L611,285.17l-9.61-7.61-5.26-4.16-9.61-7.61L571.7,254l-5.26-4.16-16.31-12.92-3,4.44,19.18,15.18,5.25,4.16,9.61,7.61,14.87,11.77,5.25,4.16L616.17,296l9.61,7.61,5.25,4.17,24.48,19.38,5.25,4.16,24.48,19.38,5.25,4.16,3.62,2.86q1.49-2.22,3-4.43l-6.48-5.13Z"/><path class="cls-2" d="M670.15,351.21l-24.48-19.38-5.26-4.16L625.55,315.9l2.39,5.06-2.39-5.06-9.61-7.61-5.26-4.16-24.47-19.38L581,280.59,571.34,273l-14.86-11.77-5.26-4.16-20.63-16.34c-4.19-3.1-8.68-6.33-13.53-9.68A93.21,93.21,0,0,0,496,220.12l.89.7,24.48,19.38,5.25,4.17,24.48,19.38,5.25,4.16,9.61,7.61,14.87,11.77,5.25,4.16,24.48,19.38,5.25,4.16,14.87,11.77,9.61,7.61,5.25,4.16L670,357.92l5.26,4.16,10.37,8.21,3-4.43L675.4,355.37Z"/><path class="cls-2" d="M654.93,358.4l-14.87-11.77,5.13,10.86,9.61,7.61,5.26,4.16,17.12,13.57q1.49-2.2,3-4.43l-20-15.84Z"/><path class="cls-2" d="M654.57,377.36h0L645,369.75l-5.25-4.16-24.48-19.38L610,342.05,585.5,322.66l-5.25-4.16-24.48-19.38L550.51,295l-9.61-7.61L526,275.58l-5.26-4.16-14.86-11.77L496.31,252l-5.26-4.16L466.58,228.5l-5.26-4.16-11.25-8.92c-1.2.18-2.39.36-3.57.58s-2.27.47-3.39.72L461.2,231l5.25,4.16,24.48,19.38,5.25,4.16,14.87,11.77,9.61,7.61,5.25,4.16,9.61,7.61,14.87,11.77,5.25,4.16,24.48,19.39,5.26,4.16,24.47,19.38,5.26,4.16,24.47,19.38,5.26,4.16,14.86,11.77,9,7.12,3-4.42-2.26-1.79Z"/><path class="cls-2" d="M706.55,303.08l-5.26-4.16-5-3.92c-1,.09-2.08.16-3.13.22,1-.06,2.09-.14,3.13-.23l-19.51-15.45-5.26-4.16L647.08,256l-5.25-4.16-9.61-7.61-14.87-11.77-5.25-4.16-24.48-19.38-5.25-4.17-6.85-5.42-3,4.37,0,.06.11.09h0l9.61,7.61,5.26,4.16L612,235l5.26,4.16,9.61,7.61,14.86,11.77L647,262.7l24.48,19.38,5.25,4.16,24.48,19.38,5.25,4.17,13.05,10.33.67-1c.78-1.15,1.55-2.3,2.33-3.44l-6.31-5Z"/><path class="cls-2" d="M686.07,306.11,661.6,286.73l-5.26-4.16-24.47-19.38L626.61,259,617,251.42l-14.87-11.78-5.25-4.16L582,223.71l5.13,10.87,9.61,7.61,5.26,4.16,9.61,7.61,14.86,11.77,5.26,4.16,24.48,19.38,5.25,4.16L686,312.81,691.2,317,711,332.66l3-4.43-22.67-18Z"/><path class="cls-2" d="M676.11,317.46l-5.26-4.16-24.47-19.38-5.26-4.17-24.47-19.38-5.26-4.16-9.61-7.61h0l-5.25-4.16h0l-9.62-7.61-5.25-4.16L558.58,224.4l-3,4.43,1.47,1.16,24.47,19.38,5.26,4.16,9.61,7.61,5.26,4.16-2.57-5.43,2.57,5.43,9.61,7.61,5.25,4.17L641,296.46l5.25,4.16L670.73,320l5.25,4.16,24.48,19.38,2.1,1.66,3-4.43-5-3.93Z"/></svg>